<?xml version="1.0" encoding="UTF-8"?>
<svg id="Layer_2" xmlns="http://www.w3.org/2000/svg" viewBox="0 0 632.41 69.49">
  <g id="Artwork">
    <g>
      <path d="M14.02,57.58V10.51c0-2.71.64-5.8,1.57-9.66H0c.93,3.86,1.57,6.95,1.57,9.66v48.47c0,2.71-.64,5.8-1.57,9.66h40.38l3.86-12.37c-3.81,1.06-7.41,1.31-13.14,1.31H14.02Z"/>
      <path d="M64.4,57.58V10.51c0-2.71.64-5.8,1.57-9.66h-15.59c.93,3.86,1.57,6.95,1.57,9.66v48.47c0,2.71-.64,5.8-1.57,9.66h40.38l3.86-12.37c-3.81,1.06-7.41,1.31-13.14,1.31h-17.08Z"/>
      <path d="M130.92,0c-20.42,0-34.62,15.38-34.62,34.74s14.19,34.74,34.62,34.74,34.62-15.38,34.62-34.74S151.34,0,130.92,0ZM130.92,58.39c-13.73,0-22.03-9.66-22.03-23.64s8.3-23.64,22.03-23.64,22.03,9.66,22.03,23.64-8.3,23.64-22.03,23.64Z"/>
      <path d="M210.99,9.96c-3.26,9.32-8.64,17.41-14.49,23.73-5.68-6.61-10.64-14.41-13.9-23.73-1.14-3.26-1.69-6.06-1.91-9.11h-14.32c4.58,17.71,13.6,32.12,23.98,42.71v25.08h12.46v-25.08c10.38-10.59,19.45-25,23.98-42.71h-13.9c-.21,3.05-.76,5.85-1.91,9.11Z"/>
      <path d="M258.27.85h-22.88c.93,3.86,1.57,6.95,1.57,9.66v48.47c0,2.71-.64,5.8-1.57,9.66h22.88c21.74,0,35.46-13.9,35.46-33.9S280,.85,258.27.85ZM257.42,57.58h-8.01V11.91h8.01c15.38,0,23.73,8.09,23.73,22.8s-8.35,22.88-23.73,22.88Z"/>
      <path d="M334.61,31.44l-13.69-5.55c-5.34-2.2-7.58-4.58-7.58-8.64,0-4.28,3.52-7.08,10.64-7.08,5.72,0,11.31,2.08,18.94,7.12V4.24c-4.03-1.91-10.97-4.24-18.35-4.24-14.11,0-23.26,7.42-23.26,19.15,0,8.69,4.49,14.24,14.53,18.26l10.89,4.36c6.82,2.75,8.9,5.55,8.9,9.15,0,5.42-4.87,8.43-12.5,8.43-6.69,0-12.46-2.54-21.06-8.09l.21,13.56c4.49,1.99,11.82,4.66,20.3,4.66,16.14,0,25.21-8.56,25.21-20.17,0-8.86-5.21-14.66-13.18-17.88Z"/>
      <path d="M415.88,33.43c6.14-3.43,9.49-9.19,9.49-15.51,0-10.38-7.88-17.08-20.76-17.08h-26.82c.93,3.86,1.57,6.95,1.57,9.66v48.47c0,2.71-.64,5.8-1.57,9.66h26.99c15,0,22.8-7.84,22.8-19.41,0-7.25-4.28-13.18-11.69-15.8ZM391.82,11.57h11.53c5.89,0,9.53,3.01,9.53,8.69s-3.22,9.07-9.91,9.07h-11.14V11.57ZM404.91,57.88h-13.09v-18.43h12.58c6.4,0,10.68,3.26,10.68,9.19s-3.43,9.24-10.17,9.24Z"/>
      <path d="M473.03.85h-16.65l-19.49,56.95c-1.31,3.86-2.5,6.95-4.36,10.85h15.25c.17-3.9.81-6.99,1.74-9.7l2.12-6.53h25.68l2.12,6.53c.93,2.71,1.57,5.8,1.74,9.7h15.72c-1.86-3.9-3.05-6.99-4.36-10.85L473.03.85ZM454.98,41.95l9.49-29.36,9.45,29.36h-18.94Z"/>
      <path d="M562.05.85h-14.87c.93,3.86,1.57,6.95,1.57,9.66v38.56L520.99.85h-16.61c.93,3.86,1.57,6.95,1.57,9.66v48.47c0,2.71-.64,5.8-1.57,9.66h14.87c-.89-3.86-1.57-6.95-1.57-9.66V18.9l28.64,49.74h14.36c-.17-5.17-.21-7.84-.21-11.4V10.51c0-2.71.68-5.8,1.57-9.66Z"/>
      <path d="M624.32,58.98l-20.04-26.69,18.35-21.61c2.92-3.43,4.58-5.55,8.52-9.79v-.04h-15.59c-2.58,4.19-3.77,6.23-7.12,10.13l-18.22,21.14V10.51c0-2.71.68-5.8,1.57-9.66h-15.59c.93,3.86,1.57,6.95,1.57,9.66v48.47c0,2.71-.64,5.8-1.57,9.66h15.59c-.93-3.86-1.57-6.95-1.57-9.66v-25.55l18.94,25.13c3.09,4.03,4.41,5.89,6.99,10.08h16.27v-.04c-3.64-3.86-5.42-6.06-8.09-9.62Z"/>
    </g>
  </g>
</svg>