<?xml version="1.0" encoding="UTF-8"?><svg id="Layer_1" xmlns="http://www.w3.org/2000/svg" xmlns:xlink="http://www.w3.org/1999/xlink" viewBox="0 0 632.41 385.98"><defs><style>.cls-1,.cls-2{fill:none;}.cls-3{fill:#006a4d;}.cls-2{clip-path:url(#clippath);}</style><clipPath id="clippath"><rect class="cls-1" width="632.41" height="385.98"/></clipPath></defs><g class="cls-2"><path d="m14.02,374.08v-47.08c0-2.71.64-5.8,1.57-9.66H0c.93,3.86,1.57,6.95,1.57,9.66v48.47c0,2.71-.64,5.81-1.57,9.66h40.38l3.86-12.37c-3.81,1.06-7.42,1.31-13.14,1.31H14.02Z"/><path d="m64.4,374.08v-47.08c0-2.71.64-5.8,1.57-9.66h-15.59c.93,3.86,1.57,6.95,1.57,9.66v48.47c0,2.71-.64,5.81-1.57,9.66h40.38l3.86-12.37c-3.81,1.06-7.42,1.31-13.13,1.31h-17.08Z"/><path d="m130.92,316.5c-20.42,0-34.62,15.38-34.62,34.74s14.19,34.74,34.62,34.74,34.62-15.38,34.62-34.74-14.19-34.74-34.62-34.74m0,58.39c-13.73,0-22.03-9.66-22.03-23.64s8.31-23.64,22.03-23.64,22.03,9.66,22.03,23.64-8.3,23.64-22.03,23.64"/><path d="m210.99,326.45c-3.26,9.32-8.64,17.42-14.49,23.73-5.68-6.61-10.63-14.41-13.9-23.73-1.14-3.26-1.69-6.06-1.91-9.11h-14.32c4.58,17.71,13.6,32.12,23.98,42.71v25.08h12.46v-25.08c10.38-10.59,19.45-25,23.98-42.71h-13.9c-.21,3.05-.76,5.85-1.91,9.11"/><path d="m258.27,317.34h-22.88c.93,3.86,1.57,6.95,1.57,9.66v48.47c0,2.71-.64,5.81-1.57,9.66h22.88c21.74,0,35.47-13.9,35.47-33.9s-13.73-33.9-35.47-33.9m-.85,56.74h-8.01v-45.68h8.01c15.38,0,23.73,8.09,23.73,22.79s-8.35,22.88-23.73,22.88"/><path d="m334.61,347.93l-13.69-5.55c-5.34-2.2-7.58-4.58-7.58-8.64,0-4.28,3.52-7.08,10.64-7.08,5.72,0,11.31,2.08,18.94,7.12v-13.05c-4.03-1.91-10.97-4.24-18.35-4.24-14.11,0-23.26,7.42-23.26,19.15,0,8.69,4.49,14.24,14.53,18.26l10.89,4.37c6.82,2.75,8.9,5.55,8.9,9.15,0,5.42-4.87,8.43-12.5,8.43-6.7,0-12.46-2.54-21.06-8.09l.21,13.56c4.49,1.99,11.82,4.66,20.3,4.66,16.14,0,25.21-8.56,25.21-20.17,0-8.85-5.21-14.66-13.18-17.88"/><path d="m415.88,349.93c6.14-3.43,9.49-9.19,9.49-15.51,0-10.38-7.88-17.08-20.76-17.08h-26.82c.93,3.86,1.57,6.95,1.57,9.66v48.47c0,2.71-.64,5.8-1.57,9.66h26.99c15,0,22.8-7.84,22.8-19.41,0-7.25-4.28-13.18-11.7-15.8m-24.07-21.86h11.52c5.89,0,9.53,3.01,9.53,8.69s-3.22,9.07-9.92,9.07h-11.14v-17.75Zm13.09,46.31h-13.09v-18.43h12.58c6.4,0,10.68,3.26,10.68,9.19s-3.43,9.24-10.17,9.24"/><path d="m473.03,317.34h-16.65l-19.49,56.95c-1.31,3.86-2.5,6.95-4.36,10.85h15.25c.17-3.9.8-6.99,1.74-9.7l2.12-6.52h25.68l2.12,6.52c.93,2.71,1.57,5.81,1.74,9.7h15.72c-1.86-3.9-3.05-6.99-4.36-10.85l-19.49-56.95Zm-18.05,41.1l9.49-29.36,9.45,29.36h-18.94Z"/><path d="m562.05,317.34h-14.87c.93,3.86,1.57,6.95,1.57,9.66v38.56l-27.75-48.22h-16.61c.93,3.86,1.57,6.95,1.57,9.66v48.47c0,2.71-.64,5.8-1.57,9.66h14.87c-.89-3.86-1.57-6.95-1.57-9.66v-40.08l28.64,49.74h14.36c-.17-5.17-.21-7.84-.21-11.4v-46.74c0-2.71.68-5.8,1.57-9.66"/><path d="m624.32,375.48l-20.04-26.69,18.35-21.61c2.92-3.43,4.58-5.55,8.52-9.79v-.04h-15.59c-2.58,4.19-3.77,6.23-7.12,10.13l-18.22,21.14v-21.61c0-2.71.68-5.81,1.57-9.66h-15.59c.93,3.86,1.57,6.95,1.57,9.66v48.47c0,2.71-.64,5.8-1.57,9.66h15.59c-.93-3.86-1.57-6.95-1.57-9.66v-25.55l18.94,25.13c3.09,4.03,4.41,5.89,6.99,10.09h16.27v-.04c-3.64-3.86-5.42-6.06-8.09-9.62"/><path d="m416.55,94.65l-25.35,8.42c-6.22-23.7-31.81-24.17-31.81-42.28,0-2.91,1.1-5.51,2.05-7.09l16.46,8.03c.31,1.57,2.52,4.96,8.66,4.96s10.55-5.27,10.55-10.24c0-1.34-.39-2.91-1.57-4.41l-18.9-23.86c.47-1.26.79-2.36.79-3.39,0-6.14-8.27-8.19-8.27-10.94,0-.55.32-1.26.55-2.21.94-3.7.39-7.79-2.52-10.24l-3.46,7.01h-.08c.39-4.57-1.42-7.01-3.94-8.42-1.42,5.35-4.09,14.02-9.84,14.02-4.41,0-5.35-4.96-4.88-8.5-7.95,1.1-8.35,12.52-18.74,12.52-3.54,0-5.83-1.97-6.77-3.31-4.02,5.98-2.76,12.05-.24,15.51l-.08.08c-4.96-3.15-14.73-1.89-20.39,6.61,6.46,4.33,7.72,8.27,7.72,10.79,0,2.36-1.26,4.02-3.31,4.02-1.34,0-2.68-.63-3.86-1.65-1.42,8.58,1.89,16.3,14.33,18.35v.08c-10.63,3.15-13.15,13.54-9.06,21.1,3.31-4.02,8.19-3.07,9.76,1.02-1.65,2.28-3.15,4.49-3.15,9.21,0,2.83.95,5.67,4.02,8.35,1.02-2.6,2.83-3.15,4.02-3.15,2.36,0,4.02,1.73,4.02,4.65,0,6.06-5.83,11.34-12.83,14.33-15.75,6.69-36.3,3.7-53.07,7.01-6.22,1.26-12.36,3.39-17.4,7.17-9.84-17.01-22.91-23.78-37.56-23.78-16.06,0-30.16,10.16-30.16,28.51,0,23.31,22.83,36.77,22.83,50.47,0,7.56-6.14,10.95-14.65,8.74,3.78,7.24,11.1,10.87,18.9,10.87,10.47,0,17.72-8.82,17.72-17.95,0-14.09-14.02-23.31-14.02-36.54h.08c3.78,5.59,10.63,5.2,13.31,1.5-3.7-1.89-5.43-6.22-5.43-10.16,0-6.77,4.8-11.18,10.16-11.18,4.8,0,8.03,2.12,10.79,6.06-4.25,4.96-6.85,11.34-6.85,18.98,0,13.86,9.13,20.08,9.13,30.95s-8.5,18.98-13.62,22.36c4.8,9.06,13.86,26.61,16.3,55.59l5.75,4.02v6.85h22.6l-7.48-9.76c-10.79-5.35-12.99-19.21-15.43-30.87-1.65-7.72-2.05-13.7-1.34-16.77,1.89-8.19,12.36-8.27,19.53-19.06-.08,7.48-2.13,15.36-5.98,23.07,15.9,14.17,27.48,29.29,34.88,42.99l6.46,3.54.16,6.85h22.76l-7.87-9.61c-9.29-3.62-16.77-14.96-24.65-26.77-7.09-10.63-10.32-16.14-10.32-19.53,0-9.45,22.05-20.94,23.94-40.87,24.57.32,52.6-6.3,65.83-20,11.73,1.34,16.46-1.89,25.12-8.98,9.61-7.79,17.09-11.34,21.65-12.6,1.73-.47,3.7-.95,4.17-.47.55.55.63,2.13.63,3.78,0,5.35-.71,15.27-6.3,30.08l1.89,7.09h-6.85v22.36l12.76-10.87,4.8-12.99,5.9-50.63c-11.26-2.13-24.72-3.31-36.77-2.36,7.4-8.27,13.7-13.62,22.13-18.74,6.93,2.05,19.84,10.24,29.37,25.2l6.22,1.73v6.61h22.68l-7.48-9.53c-11.81-7.01-30.95-24.09-49.05-41.73"/><path class="cls-3" d="m203.4,120.79c4.73,0,11.42,1.1,16.06,5.43-11.02-5.04-27.4-1.73-28.58,11.57-1.89-2.05-2.52-4.57-2.68-6.77-4.09,1.89-7.17,7.56-7.95,13.62-3.23-14.49,8.5-23.86,23.15-23.86m61.02,15.75c15.28-1.89,36.06-.16,53.07-8.58,7.95-3.94,15.98-10.55,15.98-19.53,0-10.79-13.31-21.42-13.31-44.33,0-14.96,6.61-32.2,24.09-41.57-11.1,9.61-16.38,20.63-16.38,34.02s5.28,27.64,23.07,34.65c12.6,4.96,24.33,5.12,29.37,15.59-4.49-3.54-10.16-4.72-14.17-4.72-25.59,0-35.28,47.87-65.27,61.5,6.38-16.61-12.84-21.97-30.55-21.57-14.49.31-36.61,4.25-36.85,27.16-4.1-15.35,4.72-29.37,30.94-32.6m118.43-77.64c0-1.34.79-3.62.79-5.59,0-1.02-.24-2.28-1.5-4.25-1.81-2.76-5.28-7.56-8.58-11.1-4.41-4.65-8.27-5.98-14.25-5.59,4.88-2.68,5.98-5.2,5.98-8.03,0-2.44-1.34-5.04-3.54-7.48,3.15.55,11.58,4.01,11.58,8.58,0,.95-.47,1.81-1.42,2.76l20.24,25.36c-.71,1.1-2.28.63-3.62.63-.87,0-1.42.55-1.42,1.5,0,1.73,1.34,3.86,2.13,5.04-.63.39-1.81.87-3.07.87-1.58,0-3.31-.55-3.31-2.68"/></g></svg>