<?xml version="1.0" encoding="UTF-8"?>
<svg id="Layer_2" xmlns="http://www.w3.org/2000/svg" viewBox="0 0 300.87 283.46">
  <defs>
    <style>
      .cls-1 {
        fill: #006a4d;
      }
    </style>
  </defs>
  <g id="Artwork">
    <g>
      <path d="M244.33,94.65l-25.35,8.43c-6.22-23.7-31.81-24.17-31.81-42.28,0-2.91,1.1-5.51,2.05-7.09l16.46,8.03c.31,1.58,2.52,4.96,8.66,4.96s10.55-5.28,10.55-10.24c0-1.34-.39-2.91-1.57-4.41l-18.9-23.86c.47-1.26.79-2.36.79-3.39,0-6.14-8.27-8.19-8.27-10.94,0-.55.31-1.26.55-2.2.94-3.7.39-7.79-2.52-10.24l-3.46,7.01h-.08c.39-4.57-1.42-7.01-3.94-8.43-1.42,5.35-4.09,14.02-9.84,14.02-4.41,0-5.35-4.96-4.88-8.5-7.95,1.1-8.35,12.52-18.74,12.52-3.54,0-5.83-1.97-6.77-3.31-4.02,5.98-2.76,12.05-.24,15.51l-.08.08c-4.96-3.15-14.72-1.89-20.39,6.61,6.46,4.33,7.72,8.27,7.72,10.79,0,2.36-1.26,4.02-3.31,4.02-1.34,0-2.68-.63-3.86-1.65-1.42,8.58,1.89,16.3,14.33,18.35v.08c-10.63,3.15-13.15,13.54-9.06,21.1,3.31-4.02,8.19-3.07,9.76,1.02-1.65,2.28-3.15,4.49-3.15,9.21,0,2.83.95,5.67,4.02,8.35,1.02-2.6,2.83-3.15,4.02-3.15,2.36,0,4.02,1.73,4.02,4.65,0,6.06-5.83,11.34-12.83,14.33-15.75,6.69-36.3,3.7-53.07,7.01-6.22,1.26-12.36,3.39-17.4,7.17-9.84-17.01-22.91-23.78-37.56-23.78-16.06,0-30.16,10.16-30.16,28.5,0,23.31,22.83,36.77,22.83,50.47,0,7.56-6.14,10.94-14.65,8.74,3.78,7.24,11.1,10.87,18.9,10.87,10.47,0,17.72-8.82,17.72-17.95,0-14.09-14.02-23.31-14.02-36.54h.08c3.78,5.59,10.63,5.2,13.31,1.5-3.7-1.89-5.43-6.22-5.43-10.16,0-6.77,4.8-11.18,10.16-11.18,4.8,0,8.03,2.13,10.79,6.06-4.25,4.96-6.85,11.34-6.85,18.98,0,13.86,9.13,20.08,9.13,30.94s-8.5,18.98-13.62,22.36c4.8,9.05,13.86,26.61,16.3,55.59l5.75,4.02v6.85h22.6l-7.48-9.76c-10.79-5.35-12.99-19.21-15.43-30.87-1.65-7.72-2.05-13.7-1.34-16.77,1.89-8.19,12.36-8.27,19.53-19.06-.08,7.48-2.13,15.35-5.98,23.07,15.91,14.17,27.48,29.29,34.88,42.99l6.46,3.54.16,6.85h22.76l-7.87-9.61c-9.29-3.62-16.77-14.96-24.65-26.77-7.09-10.63-10.32-16.14-10.32-19.53,0-9.45,22.05-20.95,23.94-40.87,24.57.31,52.6-6.3,65.83-20,11.73,1.34,16.46-1.89,25.12-8.98,9.61-7.8,17.09-11.34,21.65-12.6,1.73-.47,3.7-.95,4.17-.47.55.55.63,2.13.63,3.78,0,5.35-.71,15.28-6.3,30.08l1.89,7.09h-6.85v22.36l12.76-10.87,4.8-12.99,5.91-50.63c-11.26-2.13-24.72-3.31-36.77-2.36,7.4-8.27,13.7-13.62,22.13-18.74,6.93,2.05,19.84,10.24,29.37,25.2l6.22,1.73v6.61h22.68l-7.48-9.53c-11.81-7.01-30.95-24.09-49.06-41.73Z"/>
      <path class="cls-1" d="M31.18,120.79c4.72,0,11.42,1.1,16.06,5.43-11.02-5.04-27.4-1.73-28.58,11.57-1.89-2.05-2.52-4.57-2.68-6.77-4.09,1.89-7.17,7.56-7.95,13.62-3.23-14.49,8.5-23.86,23.15-23.86ZM92.2,136.54c15.28-1.89,36.06-.16,53.07-8.58,7.95-3.94,15.98-10.55,15.98-19.53,0-10.79-13.31-21.42-13.31-44.33,0-14.96,6.61-32.2,24.09-41.58-11.1,9.61-16.38,20.63-16.38,34.02s5.28,27.64,23.07,34.65c12.6,4.96,24.33,5.12,29.37,15.59-4.49-3.54-10.16-4.72-14.17-4.72-25.59,0-35.28,47.87-65.28,61.5,6.38-16.61-12.83-21.97-30.55-21.58-14.49.31-36.61,4.25-36.85,27.17-4.09-15.35,4.72-29.37,30.94-32.6ZM210.63,58.9c0-1.34.79-3.62.79-5.59,0-1.02-.24-2.28-1.5-4.25-1.81-2.76-5.28-7.56-8.58-11.1-4.41-4.65-8.27-5.98-14.25-5.59,4.88-2.68,5.98-5.2,5.98-8.03,0-2.44-1.34-5.04-3.54-7.48,3.15.55,11.57,4.02,11.57,8.58,0,.94-.47,1.81-1.42,2.76l20.24,25.35c-.71,1.1-2.28.63-3.62.63-.87,0-1.42.55-1.42,1.5,0,1.73,1.34,3.86,2.13,5.04-.63.39-1.81.87-3.07.87-1.58,0-3.31-.55-3.31-2.68Z"/>
    </g>
  </g>
</svg>